<?xml version="1.0"?>
<svg xmlns="http://www.w3.org/2000/svg" width="229" height="60" viewBox="0 0 229 60" fill="none" style="background-color:transparent;">
  <rect width="229" height="60" fill="none"/>
  <g clip-path="url(#clip0_0_1)">
    <path d="M49.235 10H8.015C6.75027 10 5.725 10.8954 5.725 12V48C5.725 49.1046 6.75027 50 8.015 50H49.235C50.4997 50 51.525 49.1046 51.525 48V12C51.525 10.8954 50.4997 10 49.235 10Z" fill="none" stroke="#3D8B3D" stroke-width="3"/>
    <path d="M28.625 10V50Z" fill="black"/>
    <path d="M28.625 10V50" stroke="#3D8B3D" stroke-width="3"/>
    <path d="M11.45 20H22.9Z" fill="black"/>
    <path d="M11.45 20H22.9" stroke="#3D8B3D" stroke-width="1.5"/>
    <path d="M11.45 30H22.9Z" fill="black"/>
    <path d="M11.45 30H22.9" stroke="#3D8B3D" stroke-width="1.5"/>
    <path d="M11.45 40H22.9Z" fill="black"/>
    <path d="M11.45 40H22.9" stroke="#3D8B3D" stroke-width="1.5"/>
    <path d="M34.35 20H45.8Z" fill="black"/>
    <path d="M34.35 20H45.8" stroke="#3D8B3D" stroke-width="1.5"/>
    <path d="M34.35 30H45.8Z" fill="black"/>
    <path d="M34.35 30H45.8" stroke="#3D8B3D" stroke-width="1.5"/>
    <path d="M34.35 40H45.8Z" fill="black"/>
    <path d="M34.35 40H45.8" stroke="#3D8B3D" stroke-width="1.5"/>
    <path d="M73.9608 21.5653C73.8926 20.8778 73.6 20.3437 73.083 19.9631C72.5659 19.5824 71.8642 19.392 70.9778 19.392C70.3756 19.392 69.8671 19.4773 69.4523 19.6477C69.0375 19.8125 68.7193 20.0426 68.4977 20.3381C68.2818 20.6335 68.1739 20.9688 68.1739 21.3438C68.1625 21.6562 68.2278 21.929 68.3699 22.1619C68.5176 22.3949 68.7193 22.5966 68.975 22.767C69.2307 22.9318 69.5261 23.0767 69.8614 23.2017C70.1966 23.321 70.5546 23.4233 70.9352 23.5085L72.5034 23.8835C73.2648 24.054 73.9636 24.2812 74.6 24.5653C75.2364 24.8494 75.7875 25.1989 76.2534 25.6136C76.7193 26.0284 77.0801 26.517 77.3358 27.0795C77.5972 27.642 77.7307 28.2869 77.7364 29.0142C77.7307 30.0824 77.458 31.0085 76.9182 31.7926C76.3841 32.571 75.6114 33.1761 74.6 33.608C73.5943 34.0341 72.3813 34.2472 70.9608 34.2472C69.5517 34.2472 68.3244 34.0312 67.279 33.5994C66.2392 33.1676 65.4267 32.5284 64.8415 31.6818C64.2619 30.8295 63.958 29.7756 63.9296 28.5199H67.5006C67.5403 29.1051 67.708 29.5937 68.0034 29.9858C68.3046 30.3722 68.7051 30.6648 69.2051 30.8636C69.7108 31.0568 70.2818 31.1534 70.9182 31.1534C71.5432 31.1534 72.0858 31.0625 72.546 30.8807C73.0119 30.6989 73.3727 30.446 73.6284 30.1222C73.8841 29.7983 74.0119 29.4261 74.0119 29.0057C74.0119 28.6136 73.8955 28.2841 73.6625 28.017C73.4352 27.75 73.1 27.5227 72.6568 27.3352C72.2193 27.1477 71.6824 26.9773 71.046 26.8239L69.1455 26.3466C67.6739 25.9886 66.5119 25.429 65.6597 24.6676C64.8074 23.9062 64.3841 22.8807 64.3898 21.5909C64.3841 20.5341 64.6653 19.6108 65.2335 18.821C65.8074 18.0312 66.5943 17.4148 67.5943 16.9716C68.5943 16.5284 69.7307 16.3068 71.0034 16.3068C72.2989 16.3068 73.4296 16.5284 74.3955 16.9716C75.3671 17.4148 76.1227 18.0312 76.6625 18.821C77.2023 19.6108 77.4807 20.5256 77.4977 21.5653H73.9608ZM83.909 16.5455V34H80.2186V16.5455H83.909ZM86.9452 16.5455H91.4963L96.3031 28.2727H96.5077L101.314 16.5455H105.866V34H102.286V22.6392H102.141L97.6242 33.9148H95.1867L90.6696 22.5966H90.5247V34H86.9452V16.5455ZM108.241 19.5881V16.5455H122.577V19.5881H117.233V34H113.585V19.5881H108.241ZM125.813 34H121.859L127.884 16.5455H132.64L138.657 34H134.702L130.33 20.5341H130.194L125.813 34ZM125.566 27.1392H134.907V30.0199H125.566V27.1392ZM140.758 16.5455H145.309L150.116 28.2727H150.32L155.127 16.5455H159.678V34H156.099V22.6392H155.954L151.437 33.9148H148.999L144.482 22.5966H144.337V34H140.758V16.5455ZM173.5 16.5455H177.19V27.8807C177.19 29.1534 176.886 30.267 176.278 31.2216C175.676 32.1761 174.832 32.9205 173.747 33.4545C172.662 33.983 171.398 34.2472 169.954 34.2472C168.506 34.2472 167.239 33.983 166.153 33.4545C165.068 32.9205 164.224 32.1761 163.622 31.2216C163.02 30.267 162.719 29.1534 162.719 27.8807V16.5455H166.409V27.5653C166.409 28.2301 166.554 28.821 166.844 29.3381C167.139 29.8551 167.554 30.2614 168.088 30.5568C168.622 30.8523 169.244 31 169.954 31C170.67 31 171.292 30.8523 171.821 30.5568C172.355 30.2614 172.767 29.8551 173.057 29.3381C173.352 28.821 173.5 28.2301 173.5 27.5653V16.5455Z" fill="#3D8B3D"/>
    <path d="M67.833 42.5455C67.7903 42.1856 67.6175 41.9062 67.3145 41.7074C67.0115 41.5085 66.6398 41.4091 66.1994 41.4091C65.8775 41.4091 65.5957 41.4612 65.3543 41.5653C65.1152 41.6695 64.9281 41.8127 64.7932 41.995C64.6606 42.1773 64.5943 42.3845 64.5943 42.6165C64.5943 42.8106 64.6405 42.9775 64.7328 43.1172C64.8275 43.2545 64.9483 43.3693 65.095 43.4616C65.2418 43.5516 65.3957 43.6262 65.5567 43.6854C65.7177 43.7422 65.8656 43.7884 66.0006 43.8239L66.7392 44.0227C66.9286 44.0724 67.1393 44.1411 67.3713 44.2287C67.6057 44.3163 67.8294 44.4358 68.0425 44.5874C68.2579 44.7365 68.4355 44.9283 68.5751 45.1626C68.7148 45.397 68.7847 45.6847 68.7847 46.0256C68.7847 46.4186 68.6817 46.7737 68.4757 47.0909C68.2721 47.4081 67.9738 47.6603 67.5808 47.8473C67.1902 48.0343 66.7155 48.1278 66.1568 48.1278C65.636 48.1278 65.185 48.0438 64.8038 47.8757C64.4251 47.7076 64.1268 47.4732 63.909 47.1726C63.6935 46.8719 63.5716 46.5227 63.5432 46.125H64.4523C64.476 46.3996 64.5683 46.6269 64.7293 46.8068C64.8926 46.9844 65.0986 47.117 65.3472 47.2045C65.5981 47.2898 65.868 47.3324 66.1568 47.3324C66.493 47.3324 66.7948 47.2779 67.0624 47.169C67.3299 47.0578 67.5418 46.9039 67.698 46.7074C67.8543 46.5085 67.9324 46.2765 67.9324 46.0114C67.9324 45.7699 67.8649 45.5734 67.73 45.4219C67.595 45.2704 67.4175 45.1473 67.1973 45.0526C66.9771 44.9579 66.7392 44.875 66.4835 44.804L65.5886 44.5483C65.0205 44.3849 64.5707 44.1518 64.2392 43.8487C63.9078 43.5457 63.7421 43.1491 63.7421 42.6591C63.7421 42.2519 63.8521 41.8968 64.0723 41.5938C64.2948 41.2884 64.5931 41.0516 64.9672 40.8835C65.3436 40.7131 65.7638 40.6278 66.2278 40.6278C66.6966 40.6278 67.1133 40.7119 67.4778 40.88C67.8424 41.0457 68.1313 41.273 68.3443 41.5618C68.5598 41.8506 68.6734 42.1785 68.6852 42.5455H67.833ZM70.119 48V42.5455H70.9571V48H70.119ZM70.5451 41.6364C70.3818 41.6364 70.2409 41.5807 70.1226 41.4695C70.0066 41.3582 69.9486 41.2244 69.9486 41.0682C69.9486 40.9119 70.0066 40.7782 70.1226 40.6669C70.2409 40.5556 70.3818 40.5 70.5451 40.5C70.7085 40.5 70.8482 40.5556 70.9642 40.6669C71.0825 40.7782 71.1417 40.9119 71.1417 41.0682C71.1417 41.2244 71.0825 41.3582 70.9642 41.4695C70.8482 41.5807 70.7085 41.6364 70.5451 41.6364ZM76.3557 43.767L75.6028 43.9801C75.5555 43.8546 75.4857 43.7327 75.3933 43.6143C75.3034 43.4936 75.1803 43.3942 75.024 43.3161C74.8678 43.2379 74.6677 43.1989 74.4239 43.1989C74.0901 43.1989 73.8119 43.2758 73.5894 43.4297C73.3692 43.5812 73.2591 43.7741 73.2591 44.0085C73.2591 44.2169 73.3349 44.3814 73.4864 44.5021C73.6379 44.6229 73.8746 44.7235 74.1966 44.804L75.0063 45.0028C75.4939 45.1212 75.8573 45.3023 76.0965 45.5462C76.3356 45.7876 76.4551 46.099 76.4551 46.4801C76.4551 46.7926 76.3652 47.072 76.1852 47.3182C76.0077 47.5644 75.7591 47.7585 75.4395 47.9006C75.1199 48.0426 74.7482 48.1136 74.3244 48.1136C73.7681 48.1136 73.3076 47.9929 72.943 47.7514C72.5785 47.5099 72.3476 47.1572 72.2506 46.6932L73.046 46.4943C73.1218 46.7879 73.265 47.008 73.4757 47.1548C73.6888 47.3016 73.967 47.375 74.3102 47.375C74.7009 47.375 75.011 47.2921 75.2406 47.1264C75.4726 46.9583 75.5886 46.7571 75.5886 46.5227C75.5886 46.3333 75.5224 46.1747 75.3898 46.0469C75.2572 45.9167 75.0536 45.8196 74.779 45.7557L73.8699 45.5426C73.3704 45.4242 73.0034 45.2408 72.769 44.9922C72.537 44.7412 72.421 44.4276 72.421 44.0511C72.421 43.7434 72.5074 43.4711 72.6803 43.2344C72.8555 42.9976 73.0934 42.8118 73.394 42.6768C73.6971 42.5419 74.0403 42.4744 74.4239 42.4744C74.9636 42.4744 75.3874 42.5928 75.6952 42.8295C76.0053 43.0663 76.2255 43.3788 76.3557 43.767ZM80.0888 42.5455V43.2557H77.2621V42.5455H80.0888ZM78.086 41.2386H78.924V46.4375C78.924 46.6742 78.9584 46.8518 79.027 46.9702C79.0981 47.0862 79.188 47.1643 79.2969 47.2045C79.4082 47.2424 79.5254 47.2614 79.6485 47.2614C79.7408 47.2614 79.8166 47.2566 79.8758 47.2472C79.9349 47.2353 79.9823 47.2259 80.0178 47.2188L80.1883 47.9716C80.1314 47.9929 80.0521 48.0142 79.9503 48.0355C79.8485 48.0592 79.7195 48.071 79.5633 48.071C79.3265 48.071 79.0945 48.0201 78.8672 47.9183C78.6423 47.8165 78.4553 47.6615 78.3061 47.4531C78.1594 47.2448 78.086 46.982 78.086 46.6648V41.2386ZM83.5778 48.1136C83.0522 48.1136 82.5989 47.9976 82.2177 47.7656C81.8389 47.5312 81.5466 47.2045 81.3406 46.7855C81.137 46.3641 81.0352 45.8741 81.0352 45.3153C81.0352 44.7566 81.137 44.2642 81.3406 43.8381C81.5466 43.4096 81.833 43.0758 82.2 42.8366C82.5693 42.5952 83.0002 42.4744 83.4926 42.4744C83.7767 42.4744 84.0572 42.5218 84.3342 42.6165C84.6112 42.7112 84.8633 42.8651 85.0906 43.0781C85.3179 43.2888 85.499 43.5682 85.6339 43.9162C85.7689 44.2642 85.8363 44.6927 85.8363 45.2017V45.5568H81.6318V44.8324H84.9841C84.9841 44.5246 84.9225 44.25 84.7994 44.0085C84.6787 43.767 84.5058 43.5765 84.2809 43.4368C84.0584 43.2971 83.7956 43.2273 83.4926 43.2273C83.1588 43.2273 82.87 43.3101 82.6261 43.4759C82.3846 43.6392 82.1988 43.8523 82.0686 44.1151C81.9384 44.3778 81.8733 44.6596 81.8733 44.9602V45.4432C81.8733 45.8551 81.9443 46.2043 82.0863 46.4908C82.2307 46.7749 82.4308 46.9915 82.6865 47.1406C82.9422 47.2874 83.2393 47.3608 83.5778 47.3608C83.798 47.3608 83.9968 47.33 84.1744 47.2685C84.3543 47.2045 84.5094 47.1098 84.6396 46.9844C84.7698 46.8565 84.8704 46.6979 84.9414 46.5085L85.7511 46.7358C85.6659 47.0104 85.5227 47.2519 85.3214 47.4602C85.1202 47.6662 84.8716 47.8272 84.5757 47.9432C84.2798 48.0568 83.9471 48.1136 83.5778 48.1136ZM87.1112 48V42.5455H87.9209V43.3977H87.9919C88.1055 43.1065 88.289 42.8804 88.5423 42.7195C88.7956 42.5561 89.0998 42.4744 89.4549 42.4744C89.8148 42.4744 90.1143 42.5561 90.3534 42.7195C90.5949 42.8804 90.7831 43.1065 90.918 43.3977H90.9748C91.1145 43.116 91.324 42.8923 91.6034 42.7266C91.8827 42.5585 92.2177 42.4744 92.6084 42.4744C93.096 42.4744 93.495 42.6271 93.8051 42.9325C94.1152 43.2356 94.2703 43.7079 94.2703 44.3494V48H93.4322V44.3494C93.4322 43.947 93.3221 43.6593 93.102 43.4865C92.8818 43.3137 92.6226 43.2273 92.3243 43.2273C91.9407 43.2273 91.6436 43.3433 91.4329 43.5753C91.2222 43.8049 91.1169 44.0961 91.1169 44.4489V48H90.2646V44.2642C90.2646 43.9541 90.164 43.7043 89.9628 43.5149C89.7615 43.3232 89.5023 43.2273 89.1851 43.2273C88.9673 43.2273 88.7637 43.2853 88.5743 43.4013C88.3872 43.5173 88.2357 43.6783 88.1197 43.8842C88.0061 44.0878 87.9493 44.3234 87.9493 44.5909V48H87.1112ZM99.6094 40.7273V48H98.7287V40.7273H99.6094ZM102.1 44.7188V48H101.262V42.5455H102.071V43.3977H102.142C102.27 43.1207 102.464 42.8982 102.725 42.7301C102.985 42.5597 103.321 42.4744 103.733 42.4744C104.102 42.4744 104.426 42.5502 104.703 42.7017C104.98 42.8509 105.195 43.0781 105.349 43.3835C105.503 43.6866 105.58 44.0701 105.58 44.5341V48H104.742V44.5909C104.742 44.1624 104.63 43.8286 104.408 43.5895C104.185 43.348 103.88 43.2273 103.492 43.2273C103.224 43.2273 102.985 43.2853 102.774 43.4013C102.566 43.5173 102.401 43.6866 102.281 43.9091C102.16 44.1316 102.1 44.4015 102.1 44.7188ZM109.54 42.5455V43.2557H106.6V42.5455H109.54ZM107.481 48V41.7926C107.481 41.4801 107.554 41.2197 107.701 41.0114C107.847 40.803 108.038 40.6468 108.272 40.5426C108.507 40.4384 108.754 40.3864 109.015 40.3864C109.221 40.3864 109.389 40.4029 109.519 40.4361C109.649 40.4692 109.746 40.5 109.81 40.5284L109.569 41.2528C109.526 41.2386 109.467 41.2209 109.391 41.1996C109.318 41.1783 109.221 41.1676 109.1 41.1676C108.823 41.1676 108.623 41.2375 108.5 41.3771C108.379 41.5168 108.319 41.7216 108.319 41.9915V48H107.481ZM112.706 48.1136C112.214 48.1136 111.782 47.9964 111.41 47.7621C111.041 47.5277 110.752 47.1998 110.543 46.7784C110.337 46.357 110.234 45.8646 110.234 45.3011C110.234 44.733 110.337 44.237 110.543 43.8132C110.752 43.3894 111.041 43.0604 111.41 42.826C111.782 42.5916 112.214 42.4744 112.706 42.4744C113.198 42.4744 113.629 42.5916 113.999 42.826C114.37 43.0604 114.659 43.3894 114.865 43.8132C115.073 44.237 115.178 44.733 115.178 45.3011C115.178 45.8646 115.073 46.357 114.865 46.7784C114.659 47.1998 114.37 47.5277 113.999 47.7621C113.629 47.9964 113.198 48.1136 112.706 48.1136ZM112.706 47.3608C113.08 47.3608 113.388 47.2649 113.629 47.0732C113.871 46.8814 114.05 46.6293 114.166 46.3168C114.282 46.0043 114.34 45.6657 114.34 45.3011C114.34 44.9366 114.282 44.5968 114.166 44.282C114.05 43.9671 113.871 43.7126 113.629 43.5185C113.388 43.3243 113.08 43.2273 112.706 43.2273C112.332 43.2273 112.024 43.3243 111.783 43.5185C111.541 43.7126 111.362 43.9671 111.246 44.282C111.13 44.5968 111.072 44.9366 111.072 45.3011C111.072 45.6657 111.13 46.0043 111.246 46.3168C111.362 46.6293 111.541 46.8814 111.783 47.0732C112.024 47.2649 112.332 47.3608 112.706 47.3608ZM116.457 48V42.5455H117.267V43.3693H117.323C117.423 43.0994 117.603 42.8804 117.863 42.7124C118.124 42.5443 118.417 42.4602 118.744 42.4602C118.805 42.4602 118.882 42.4614 118.975 42.4638C119.067 42.4661 119.137 42.4697 119.184 42.4744V43.3267C119.156 43.3196 119.091 43.3089 118.989 43.2947C118.889 43.2782 118.784 43.2699 118.673 43.2699C118.408 43.2699 118.171 43.3255 117.963 43.4368C117.757 43.5457 117.593 43.6972 117.473 43.8913C117.354 44.0831 117.295 44.3021 117.295 44.5483V48H116.457ZM120.178 48V42.5455H120.987V43.3977H121.058C121.172 43.1065 121.355 42.8804 121.609 42.7195C121.862 42.5561 122.166 42.4744 122.521 42.4744C122.881 42.4744 123.181 42.5561 123.42 42.7195C123.661 42.8804 123.849 43.1065 123.984 43.3977H124.041C124.181 43.116 124.39 42.8923 124.67 42.7266C124.949 42.5585 125.284 42.4744 125.675 42.4744C126.162 42.4744 126.561 42.6271 126.871 42.9325C127.182 43.2356 127.337 43.7079 127.337 44.3494V48H126.499V44.3494C126.499 43.947 126.389 43.6593 126.168 43.4865C125.948 43.3137 125.689 43.2273 125.391 43.2273C125.007 43.2273 124.71 43.3433 124.499 43.5753C124.289 43.8049 124.183 44.0961 124.183 44.4489V48H123.331V44.2642C123.331 43.9541 123.23 43.7043 123.029 43.5149C122.828 43.3232 122.569 43.2273 122.251 43.2273C122.034 43.2273 121.83 43.2853 121.641 43.4013C121.454 43.5173 121.302 43.6783 121.186 43.8842C121.072 44.0878 121.016 44.3234 121.016 44.5909V48H120.178ZM130.474 48.1278C130.128 48.1278 129.815 48.0627 129.533 47.9325C129.251 47.8 129.028 47.6094 128.862 47.3608C128.696 47.1098 128.613 46.8068 128.613 46.4517C128.613 46.1392 128.675 45.8859 128.798 45.6918C128.921 45.4953 129.086 45.3414 129.292 45.2301C129.498 45.1188 129.725 45.036 129.973 44.9815C130.224 44.9247 130.476 44.8797 130.73 44.8466C131.061 44.804 131.33 44.772 131.536 44.7507C131.744 44.727 131.896 44.688 131.99 44.6335C132.088 44.5791 132.136 44.4844 132.136 44.3494V44.321C132.136 43.9706 132.04 43.6984 131.848 43.5043C131.659 43.3101 131.371 43.2131 130.985 43.2131C130.585 43.2131 130.272 43.3007 130.044 43.4759C129.817 43.651 129.657 43.8381 129.565 44.0369L128.77 43.7528C128.912 43.4214 129.101 43.1634 129.338 42.9787C129.577 42.7917 129.837 42.6615 130.119 42.5881C130.403 42.5123 130.682 42.4744 130.957 42.4744C131.132 42.4744 131.333 42.4957 131.561 42.5384C131.79 42.5786 132.012 42.6626 132.225 42.7905C132.44 42.9183 132.619 43.1113 132.761 43.3693C132.903 43.6274 132.974 43.973 132.974 44.4062V48H132.136V47.2614H132.093C132.037 47.3797 131.942 47.5064 131.809 47.6413C131.677 47.7763 131.5 47.8911 131.28 47.9858C131.06 48.0805 130.791 48.1278 130.474 48.1278ZM130.602 47.375C130.933 47.375 131.213 47.3099 131.44 47.1797C131.67 47.0495 131.842 46.8814 131.958 46.6754C132.077 46.4695 132.136 46.2528 132.136 46.0256V45.2585C132.101 45.3011 132.022 45.3402 131.902 45.3757C131.783 45.4089 131.646 45.4384 131.49 45.4645C131.336 45.4882 131.186 45.5095 131.039 45.5284C130.894 45.545 130.777 45.5592 130.687 45.571C130.469 45.5994 130.266 45.6456 130.076 45.7095C129.889 45.7711 129.738 45.8646 129.622 45.9901C129.508 46.1132 129.451 46.2812 129.451 46.4943C129.451 46.7855 129.559 47.0057 129.775 47.1548C129.992 47.3016 130.268 47.375 130.602 47.375ZM138.367 43.767L137.615 43.9801C137.567 43.8546 137.497 43.7327 137.405 43.6143C137.315 43.4936 137.192 43.3942 137.036 43.3161C136.879 43.2379 136.679 43.1989 136.436 43.1989C136.102 43.1989 135.824 43.2758 135.601 43.4297C135.381 43.5812 135.271 43.7741 135.271 44.0085C135.271 44.2169 135.347 44.3814 135.498 44.5021C135.65 44.6229 135.886 44.7235 136.208 44.804L137.018 45.0028C137.506 45.1212 137.869 45.3023 138.108 45.5462C138.347 45.7876 138.467 46.099 138.467 46.4801C138.467 46.7926 138.377 47.072 138.197 47.3182C138.019 47.5644 137.771 47.7585 137.451 47.9006C137.132 48.0426 136.76 48.1136 136.336 48.1136C135.78 48.1136 135.319 47.9929 134.955 47.7514C134.59 47.5099 134.359 47.1572 134.262 46.6932L135.058 46.4943C135.134 46.7879 135.277 47.008 135.487 47.1548C135.701 47.3016 135.979 47.375 136.322 47.375C136.713 47.375 137.023 47.2921 137.252 47.1264C137.484 46.9583 137.6 46.7571 137.6 46.5227C137.6 46.3333 137.534 46.1747 137.401 46.0469C137.269 45.9167 137.065 45.8196 136.791 45.7557L135.882 45.5426C135.382 45.4242 135.015 45.2408 134.781 44.9922C134.549 44.7412 134.433 44.4276 134.433 44.0511C134.433 43.7434 134.519 43.4711 134.692 43.2344C134.867 42.9976 135.105 42.8118 135.406 42.6768C135.709 42.5419 136.052 42.4744 136.436 42.4744C136.975 42.4744 137.399 42.5928 137.707 42.8295C138.017 43.0663 138.237 43.3788 138.367 43.767ZM139.728 48V42.5455H140.566V48H139.728ZM140.155 41.6364C139.991 41.6364 139.85 41.5807 139.732 41.4695C139.616 41.3582 139.558 41.2244 139.558 41.0682C139.558 40.9119 139.616 40.7782 139.732 40.6669C139.85 40.5556 139.991 40.5 140.155 40.5C140.318 40.5 140.458 40.5556 140.574 40.6669C140.692 40.7782 140.751 40.9119 140.751 41.0682C140.751 41.2244 140.692 41.3582 140.574 41.4695C140.458 41.5807 140.318 41.6364 140.155 41.6364ZM145.028 40.7273H146.079L148.55 46.7642H148.636L151.107 40.7273H152.158V48H151.334V42.4744H151.263L148.991 48H148.195L145.922 42.4744H145.851V48H145.028V40.7273ZM155.416 48.1278C155.07 48.1278 154.756 48.0627 154.474 47.9325C154.193 47.8 153.969 47.6094 153.803 47.3608C153.638 47.1098 153.555 46.8068 153.555 46.4517C153.555 46.1392 153.616 45.8859 153.739 45.6918C153.862 45.4953 154.027 45.3414 154.233 45.2301C154.439 45.1188 154.666 45.036 154.915 44.9815C155.166 44.9247 155.418 44.8797 155.671 44.8466C156.003 44.804 156.271 44.772 156.477 44.7507C156.686 44.727 156.837 44.688 156.932 44.6335C157.029 44.5791 157.077 44.4844 157.077 44.3494V44.321C157.077 43.9706 156.982 43.6984 156.79 43.5043C156.6 43.3101 156.313 43.2131 155.927 43.2131C155.527 43.2131 155.213 43.3007 154.986 43.4759C154.759 43.651 154.599 43.8381 154.506 44.0369L153.711 43.7528C153.853 43.4214 154.042 43.1634 154.279 42.9787C154.518 42.7917 154.779 42.6615 155.06 42.5881C155.345 42.5123 155.624 42.4744 155.898 42.4744C156.074 42.4744 156.275 42.4957 156.502 42.5384C156.732 42.5786 156.953 42.6626 157.166 42.7905C157.382 42.9183 157.56 43.1113 157.702 43.3693C157.845 43.6274 157.916 43.973 157.916 44.4062V48H157.077V47.2614H157.035C156.978 47.3797 156.883 47.5064 156.751 47.6413C156.618 47.7763 156.442 47.8911 156.222 47.9858C156.001 48.0805 155.733 48.1278 155.416 48.1278ZM155.543 47.375C155.875 47.375 156.154 47.3099 156.381 47.1797C156.611 47.0495 156.784 46.8814 156.9 46.6754C157.018 46.4695 157.077 46.2528 157.077 46.0256V45.2585C157.042 45.3011 156.964 45.3402 156.843 45.3757C156.725 45.4089 156.587 45.4384 156.431 45.4645C156.277 45.4882 156.127 45.5095 155.98 45.5284C155.836 45.545 155.719 45.5592 155.629 45.571C155.411 45.5994 155.207 45.6456 155.018 45.7095C154.831 45.7711 154.679 45.8646 154.563 45.9901C154.45 46.1132 154.393 46.2812 154.393 46.4943C154.393 46.7855 154.501 47.0057 154.716 47.1548C154.934 47.3016 155.21 47.375 155.543 47.375ZM160.283 44.7188V48H159.445V42.5455H160.255V43.3977H160.326C160.454 43.1207 160.648 42.8982 160.908 42.7301C161.169 42.5597 161.505 42.4744 161.917 42.4744C162.286 42.4744 162.609 42.5502 162.886 42.7017C163.163 42.8509 163.379 43.0781 163.533 43.3835C163.686 43.6866 163.763 44.0701 163.763 44.5341V48H162.925V44.5909C162.925 44.1624 162.814 43.8286 162.591 43.5895C162.369 43.348 162.064 43.2273 161.675 43.2273C161.408 43.2273 161.169 43.2853 160.958 43.4013C160.75 43.5173 160.585 43.6866 160.464 43.9091C160.344 44.1316 160.283 44.4015 160.283 44.7188ZM166.9 48.1278C166.554 48.1278 166.241 48.0627 165.959 47.9325C165.677 47.8 165.453 47.6094 165.288 47.3608C165.122 47.1098 165.039 46.8068 165.039 46.4517C165.039 46.1392 165.101 45.8859 165.224 45.6918C165.347 45.4953 165.511 45.3414 165.717 45.2301C165.923 45.1188 166.151 45.036 166.399 44.9815C166.65 44.9247 166.902 44.8797 167.156 44.8466C167.487 44.804 167.756 44.772 167.962 44.7507C168.17 44.727 168.322 44.688 168.416 44.6335C168.513 44.5791 168.562 44.4844 168.562 44.3494V44.321C168.562 43.9706 168.466 43.6984 168.274 43.5043C168.085 43.3101 167.797 43.2131 167.411 43.2131C167.011 43.2131 166.697 43.3007 166.47 43.4759C166.243 43.651 166.083 43.8381 165.991 44.0369L165.195 43.7528C165.337 43.4214 165.527 43.1634 165.764 42.9787C166.003 42.7917 166.263 42.6615 166.545 42.5881C166.829 42.5123 167.108 42.4744 167.383 42.4744C167.558 42.4744 167.759 42.4957 167.987 42.5384C168.216 42.5786 168.438 42.6626 168.651 42.7905C168.866 42.9183 169.045 43.1113 169.187 43.3693C169.329 43.6274 169.4 43.973 169.4 44.4062V48H168.562V47.2614H168.519C168.462 47.3797 168.368 47.5064 168.235 47.6413C168.103 47.7763 167.926 47.8911 167.706 47.9858C167.486 48.0805 167.217 48.1278 166.9 48.1278ZM167.028 47.375C167.359 47.375 167.639 47.3099 167.866 47.1797C168.095 47.0495 168.268 46.8814 168.384 46.6754C168.503 46.4695 168.562 46.2528 168.562 46.0256V45.2585C168.526 45.3011 168.448 45.3402 168.327 45.3757C168.209 45.4089 168.072 45.4384 167.916 45.4645C167.762 45.4882 167.611 45.5095 167.465 45.5284C167.32 45.545 167.203 45.5592 167.113 45.571C166.895 45.5994 166.692 45.6456 166.502 45.7095C166.315 45.7711 166.164 45.8646 166.048 45.9901C165.934 46.1132 165.877 46.2812 165.877 46.4943C165.877 46.7855 165.985 47.0057 166.2 47.1548C166.418 47.3016 166.694 47.375 167.028 47.375ZM170.93 42.5455H171.768V48.3977C171.768 48.7339 171.71 49.0251 171.594 49.2713C171.48 49.5175 171.307 49.7081 171.075 49.843C170.846 49.978 170.555 50.0455 170.205 50.0455C170.177 50.0455 170.148 50.0455 170.12 50.0455C170.091 50.0455 170.063 50.0455 170.035 50.0455V49.2642C170.063 49.2642 170.089 49.2642 170.113 49.2642C170.136 49.2642 170.163 49.2642 170.191 49.2642C170.447 49.2642 170.634 49.1884 170.752 49.0369C170.87 48.8878 170.93 48.6747 170.93 48.3977V42.5455ZM171.341 41.6364C171.178 41.6364 171.037 41.5807 170.919 41.4695C170.803 41.3582 170.745 41.2244 170.745 41.0682C170.745 40.9119 170.803 40.7782 170.919 40.6669C171.037 40.5556 171.178 40.5 171.341 40.5C171.505 40.5 171.645 40.5556 171.761 40.6669C171.879 40.7782 171.938 40.9119 171.938 41.0682C171.938 41.2244 171.879 41.3582 171.761 41.4695C171.645 41.5807 171.505 41.6364 171.341 41.6364ZM175.59 48.1136C175.064 48.1136 174.611 47.9976 174.229 47.7656C173.851 47.5312 173.558 47.2045 173.352 46.7855C173.149 46.3641 173.047 45.8741 173.047 45.3153C173.047 44.7566 173.149 44.2642 173.352 43.8381C173.558 43.4096 173.845 43.0758 174.212 42.8366C174.581 42.5952 175.012 42.4744 175.504 42.4744C175.788 42.4744 176.069 42.5218 176.346 42.6165C176.623 42.7112 176.875 42.8651 177.102 43.0781C177.33 43.2888 177.511 43.5682 177.646 43.9162C177.781 44.2642 177.848 44.6927 177.848 45.2017V45.5568H173.644V44.8324H176.996C176.996 44.5246 176.934 44.25 176.811 44.0085C176.69 43.767 176.518 43.5765 176.293 43.4368C176.07 43.2971 175.807 43.2273 175.504 43.2273C175.17 43.2273 174.882 43.3101 174.638 43.4759C174.396 43.6392 174.211 43.8523 174.08 44.1151C173.95 44.3778 173.885 44.6596 173.885 44.9602V45.4432C173.885 45.8551 173.956 46.2043 174.098 46.4908C174.242 46.7749 174.443 46.9915 174.698 47.1406C174.954 47.2874 175.251 47.3608 175.59 47.3608C175.81 47.3608 176.009 47.33 176.186 47.2685C176.366 47.2045 176.521 47.1098 176.651 46.9844C176.782 46.8565 176.882 46.6979 176.953 46.5085L177.763 46.7358C177.678 47.0104 177.534 47.2519 177.333 47.4602C177.132 47.6662 176.883 47.8272 176.587 47.9432C176.291 48.0568 175.959 48.1136 175.59 48.1136ZM179.123 48V42.5455H179.933V43.3977H180.004C180.117 43.1065 180.301 42.8804 180.554 42.7195C180.807 42.5561 181.112 42.4744 181.467 42.4744C181.827 42.4744 182.126 42.5561 182.365 42.7195C182.607 42.8804 182.795 43.1065 182.93 43.3977H182.987C183.126 43.116 183.336 42.8923 183.615 42.7266C183.894 42.5585 184.229 42.4744 184.62 42.4744C185.108 42.4744 185.507 42.6271 185.817 42.9325C186.127 43.2356 186.282 43.7079 186.282 44.3494V48H185.444V44.3494C185.444 43.947 185.334 43.6593 185.114 43.4865C184.894 43.3137 184.634 43.2273 184.336 43.2273C183.952 43.2273 183.655 43.3433 183.445 43.5753C183.234 43.8049 183.129 44.0961 183.129 44.4489V48H182.276V44.2642C182.276 43.9541 182.176 43.7043 181.974 43.5149C181.773 43.3232 181.514 43.2273 181.197 43.2273C180.979 43.2273 180.775 43.2853 180.586 43.4013C180.399 43.5173 180.247 43.6783 180.131 43.8842C180.018 44.0878 179.961 44.3234 179.961 44.5909V48H179.123ZM190.101 48.1136C189.576 48.1136 189.122 47.9976 188.741 47.7656C188.362 47.5312 188.07 47.2045 187.864 46.7855C187.66 46.3641 187.559 45.8741 187.559 45.3153C187.559 44.7566 187.66 44.2642 187.864 43.8381C188.07 43.4096 188.356 43.0758 188.723 42.8366C189.093 42.5952 189.524 42.4744 190.016 42.4744C190.3 42.4744 190.581 42.5218 190.858 42.6165C191.135 42.7112 191.387 42.8651 191.614 43.0781C191.841 43.2888 192.022 43.5682 192.157 43.9162C192.292 44.2642 192.36 44.6927 192.36 45.2017V45.5568H188.155V44.8324H191.507C191.507 44.5246 191.446 44.25 191.323 44.0085C191.202 43.767 191.029 43.5765 190.804 43.4368C190.582 43.2971 190.319 43.2273 190.016 43.2273C189.682 43.2273 189.393 43.3101 189.15 43.4759C188.908 43.6392 188.722 43.8523 188.592 44.1151C188.462 44.3778 188.397 44.6596 188.397 44.9602V45.4432C188.397 45.8551 188.468 46.2043 188.61 46.4908C188.754 46.7749 188.954 46.9915 189.21 47.1406C189.466 47.2874 189.763 47.3608 190.101 47.3608C190.321 47.3608 190.52 47.33 190.698 47.2685C190.878 47.2045 191.033 47.1098 191.163 46.9844C191.293 46.8565 191.394 46.6979 191.465 46.5085L192.275 46.7358C192.189 47.0104 192.046 47.2519 191.845 47.4602C191.644 47.6662 191.395 47.8272 191.099 47.9432C190.803 48.0568 190.471 48.1136 190.101 48.1136ZM194.473 44.7188V48H193.635V42.5455H194.444V43.3977H194.515C194.643 43.1207 194.837 42.8982 195.098 42.7301C195.358 42.5597 195.694 42.4744 196.106 42.4744C196.476 42.4744 196.799 42.5502 197.076 42.7017C197.353 42.8509 197.568 43.0781 197.722 43.3835C197.876 43.6866 197.953 44.0701 197.953 44.5341V48H197.115V44.5909C197.115 44.1624 197.003 43.8286 196.781 43.5895C196.558 43.348 196.253 43.2273 195.865 43.2273C195.597 43.2273 195.358 43.2853 195.147 43.4013C194.939 43.5173 194.775 43.6866 194.654 43.9091C194.533 44.1316 194.473 44.4015 194.473 44.7188ZM202.013 41.5085V40.7273H207.467V41.5085H205.18V48H204.3V41.5085H202.013ZM209.576 48.1278C209.23 48.1278 208.916 48.0627 208.635 47.9325C208.353 47.8 208.129 47.6094 207.963 47.3608C207.798 47.1098 207.715 46.8068 207.715 46.4517C207.715 46.1392 207.776 45.8859 207.9 45.6918C208.023 45.4953 208.187 45.3414 208.393 45.2301C208.599 45.1188 208.826 45.036 209.075 44.9815C209.326 44.9247 209.578 44.8797 209.831 44.8466C210.163 44.804 210.432 44.772 210.637 44.7507C210.846 44.727 210.997 44.688 211.092 44.6335C211.189 44.5791 211.238 44.4844 211.238 44.3494V44.321C211.238 43.9706 211.142 43.6984 210.95 43.5043C210.761 43.3101 210.473 43.2131 210.087 43.2131C209.687 43.2131 209.373 43.3007 209.146 43.4759C208.919 43.651 208.759 43.8381 208.667 44.0369L207.871 43.7528C208.013 43.4214 208.203 43.1634 208.439 42.9787C208.678 42.7917 208.939 42.6615 209.221 42.5881C209.505 42.5123 209.784 42.4744 210.059 42.4744C210.234 42.4744 210.435 42.4957 210.662 42.5384C210.892 42.5786 211.113 42.6626 211.326 42.7905C211.542 42.9183 211.721 43.1113 211.863 43.3693C212.005 43.6274 212.076 43.973 212.076 44.4062V48H211.238V47.2614H211.195C211.138 47.3797 211.043 47.5064 210.911 47.6413C210.778 47.7763 210.602 47.8911 210.382 47.9858C210.162 48.0805 209.893 48.1278 209.576 48.1278ZM209.704 47.375C210.035 47.375 210.314 47.3099 210.542 47.1797C210.771 47.0495 210.944 46.8814 211.06 46.6754C211.178 46.4695 211.238 46.2528 211.238 46.0256V45.2585C211.202 45.3011 211.124 45.3402 211.003 45.3757C210.885 45.4089 210.748 45.4384 210.591 45.4645C210.437 45.4882 210.287 45.5095 210.14 45.5284C209.996 45.545 209.879 45.5592 209.789 45.571C209.571 45.5994 209.367 45.6456 209.178 45.7095C208.991 45.7711 208.839 45.8646 208.723 45.9901C208.61 46.1132 208.553 46.2812 208.553 46.4943C208.553 46.7855 208.661 47.0057 208.876 47.1548C209.094 47.3016 209.37 47.375 209.704 47.375ZM213.605 48V42.5455H214.415V43.3977H214.486C214.6 43.1065 214.783 42.8804 215.036 42.7195C215.29 42.5561 215.594 42.4744 215.949 42.4744C216.309 42.4744 216.608 42.5561 216.848 42.7195C217.089 42.8804 217.277 43.1065 217.412 43.3977H217.469C217.609 43.116 217.818 42.8923 218.098 42.7266C218.377 42.5585 218.712 42.4744 219.102 42.4744C219.59 42.4744 219.989 42.6271 220.299 42.9325C220.609 43.2356 220.764 43.7079 220.764 44.3494V48H219.926V44.3494C219.926 43.947 219.816 43.6593 219.596 43.4865C219.376 43.3137 219.117 43.2273 218.818 43.2273C218.435 43.2273 218.138 43.3433 217.927 43.5753C217.716 43.8049 217.611 44.0961 217.611 44.4489V48H216.759V44.2642C216.759 43.9541 216.658 43.7043 216.457 43.5149C216.256 43.3232 215.996 43.2273 215.679 43.2273C215.461 43.2273 215.258 43.2853 215.068 43.4013C214.881 43.5173 214.73 43.6783 214.614 43.8842C214.5 44.0878 214.443 44.3234 214.443 44.5909V48H213.605ZM225.734 45.7699V42.5455H226.572V48H225.734V47.0767H225.677C225.55 47.3537 225.351 47.5893 225.081 47.7834C224.811 47.9751 224.47 48.071 224.058 48.071C223.717 48.071 223.414 47.9964 223.149 47.8473C222.884 47.6958 222.676 47.4685 222.524 47.1655C222.372 46.8601 222.297 46.4754 222.297 46.0114V42.5455H223.135V45.9545C223.135 46.3523 223.246 46.6695 223.469 46.9062C223.694 47.143 223.98 47.2614 224.328 47.2614C224.536 47.2614 224.748 47.2081 224.964 47.1016C225.181 46.995 225.364 46.8317 225.511 46.6115C225.66 46.3913 225.734 46.1108 225.734 45.7699Z" fill="#666666"/>
  </g>
  <defs>
    <clipPath id="clip0_0_1">
      <rect width="229" height="60" fill="none"/>
    </clipPath>
  </defs>
</svg>
